<svg width="11" height="14" viewBox="0 0 11 14" fill="none" xmlns="http://www.w3.org/2000/svg">
<g id="back">
<path id="Vector" fill-rule="evenodd" clip-rule="evenodd" d="M10.5 14C10.3674 14 10.2403 13.9473 10.1465 13.8536C10.0528 13.7598 10.0001 13.6326 10.0001 13.5V0.5C10.0001 0.367392 10.0528 0.240215 10.1465 0.146447C10.2403 0.0526784 10.3674 0 10.5 0C10.6326 0 10.7598 0.0526784 10.8536 0.146447C10.9473 0.240215 11 0.367392 11 0.5V13.5C11 13.6326 10.9473 13.7598 10.8536 13.8536C10.7598 13.9473 10.6326 14 10.5 14ZM8.00024 7C8.00024 7.13261 7.94757 7.25979 7.85381 7.35355C7.76005 7.44732 7.63288 7.5 7.50028 7.5H1.70776L3.85458 9.646C3.90106 9.69249 3.93794 9.74768 3.9631 9.80842C3.98825 9.86916 4.0012 9.93426 4.0012 10C4.0012 10.0657 3.98825 10.1308 3.9631 10.1916C3.93794 10.2523 3.90106 10.3075 3.85458 10.354C3.8081 10.4005 3.75291 10.4374 3.69218 10.4625C3.63144 10.4877 3.56635 10.5006 3.50061 10.5006C3.43487 10.5006 3.36978 10.4877 3.30904 10.4625C3.24831 10.4374 3.19312 10.4005 3.14664 10.354L0.146882 7.354C0.100322 7.30755 0.0633826 7.25238 0.0381782 7.19163C0.0129738 7.13089 0 7.06577 0 7C0 6.93423 0.0129738 6.86911 0.0381782 6.80837C0.0633826 6.74762 0.100322 6.69245 0.146882 6.646L3.14664 3.646C3.24052 3.55211 3.36784 3.49937 3.50061 3.49937C3.63337 3.49937 3.7607 3.55211 3.85458 3.646C3.94846 3.73989 4.0012 3.86722 4.0012 4C4.0012 4.13278 3.94846 4.26011 3.85458 4.354L1.70776 6.5H7.50028C7.63288 6.5 7.76005 6.55268 7.85381 6.64645C7.94757 6.74021 8.00024 6.86739 8.00024 7Z" fill="#DF8113"/>
</g>
</svg>
